# xmcd
#
# Track frame offsets: 
#        150
#        26085
#        46417
#        72527
#        83942
#        93795
#        102687
#        117372
#        128155
#        140515
#        160830
#        178027
#
# Disc length: 2635 seconds
#
# Revision: 0
# Processed by: cddbd v1.5.1PL0 Copyright (c) Steve Scherf et al.
# Submitted via: ExactAudioCopy v0.95a5
#
DISCID=a90a490c
DTITLE=Jandek - 0749 Foreign Keys
DYEAR=1985
DGENRE=lo-fi
TTITLE0=Spanish in Me
TTITLE1=Lost Cause
TTITLE2=Caper
TTITLE3=Uncle Steve
TTITLE4=Don't Be So Mean
TTITLE5=Coming Quiet
TTITLE6=Needs No Sun
TTITLE7=Oh No
TTITLE8=Some of Your Peace
TTITLE9=Put it Away
TTITLE10=Ballad of Robert
TTITLE11=River to Madrid
EXTD=
EXTT0=
EXTT1=
EXTT2=
EXTT3=
EXTT4=
EXTT5=
EXTT6=
EXTT7=
EXTT8=
EXTT9=
EXTT10=
EXTT11=
PLAYORDER=
